<mxfile host="Electron" modified="2023-11-05T12:39:17.078Z" agent="Mozilla/5.0 (Windows NT 10.0; Win64; x64) AppleWebKit/537.36 (KHTML, like Gecko) draw.io/22.0.3 Chrome/114.0.5735.289 Electron/25.8.4 Safari/537.36" etag="_lY_-zEnJJWXxiABBBwF" version="22.0.3" type="device">
  <diagram name="Sayfa -1" id="Dzksqx6YhWwwmsAUCaTS">
    <mxGraphModel dx="1036" dy="606" grid="1" gridSize="10" guides="1" tooltips="1" connect="1" arrows="1" fold="1" page="1" pageScale="1" pageWidth="827" pageHeight="1169" math="0" shadow="0">
      <root>
        <mxCell id="0" />
        <mxCell id="1" parent="0" />
        <mxCell id="azl1znQ4CJjXB9EbV3fs-3" style="edgeStyle=orthogonalEdgeStyle;rounded=0;orthogonalLoop=1;jettySize=auto;html=1;" edge="1" parent="1" source="azl1znQ4CJjXB9EbV3fs-1">
          <mxGeometry relative="1" as="geometry">
            <mxPoint x="400" y="160" as="targetPoint" />
          </mxGeometry>
        </mxCell>
        <mxCell id="azl1znQ4CJjXB9EbV3fs-1" value="start" style="ellipse;whiteSpace=wrap;html=1;" vertex="1" parent="1">
          <mxGeometry x="340" y="10" width="120" height="80" as="geometry" />
        </mxCell>
        <mxCell id="azl1znQ4CJjXB9EbV3fs-6" style="edgeStyle=orthogonalEdgeStyle;rounded=0;orthogonalLoop=1;jettySize=auto;html=1;entryX=0.5;entryY=0;entryDx=0;entryDy=0;" edge="1" parent="1" source="azl1znQ4CJjXB9EbV3fs-2" target="azl1znQ4CJjXB9EbV3fs-5">
          <mxGeometry relative="1" as="geometry" />
        </mxCell>
        <mxCell id="azl1znQ4CJjXB9EbV3fs-2" value="feet==F&lt;br&gt;santimetre==cm" style="rounded=0;whiteSpace=wrap;html=1;" vertex="1" parent="1">
          <mxGeometry x="340" y="160" width="120" height="60" as="geometry" />
        </mxCell>
        <mxCell id="azl1znQ4CJjXB9EbV3fs-7" style="edgeStyle=orthogonalEdgeStyle;rounded=0;orthogonalLoop=1;jettySize=auto;html=1;" edge="1" parent="1" source="azl1znQ4CJjXB9EbV3fs-5" target="azl1znQ4CJjXB9EbV3fs-8">
          <mxGeometry relative="1" as="geometry">
            <mxPoint x="400" y="410" as="targetPoint" />
          </mxGeometry>
        </mxCell>
        <mxCell id="azl1znQ4CJjXB9EbV3fs-5" value="F&#39;i giriniz" style="shape=parallelogram;perimeter=parallelogramPerimeter;whiteSpace=wrap;html=1;fixedSize=1;" vertex="1" parent="1">
          <mxGeometry x="340" y="280" width="120" height="60" as="geometry" />
        </mxCell>
        <mxCell id="azl1znQ4CJjXB9EbV3fs-9" style="edgeStyle=orthogonalEdgeStyle;rounded=0;orthogonalLoop=1;jettySize=auto;html=1;" edge="1" parent="1" source="azl1znQ4CJjXB9EbV3fs-8" target="azl1znQ4CJjXB9EbV3fs-10">
          <mxGeometry relative="1" as="geometry">
            <mxPoint x="400" y="490" as="targetPoint" />
          </mxGeometry>
        </mxCell>
        <mxCell id="azl1znQ4CJjXB9EbV3fs-8" value="cm==F*30.48" style="rounded=0;whiteSpace=wrap;html=1;" vertex="1" parent="1">
          <mxGeometry x="340" y="380" width="120" height="60" as="geometry" />
        </mxCell>
        <mxCell id="azl1znQ4CJjXB9EbV3fs-11" style="edgeStyle=orthogonalEdgeStyle;rounded=0;orthogonalLoop=1;jettySize=auto;html=1;" edge="1" parent="1" source="azl1znQ4CJjXB9EbV3fs-10">
          <mxGeometry relative="1" as="geometry">
            <mxPoint x="400" y="610.800048828125" as="targetPoint" />
          </mxGeometry>
        </mxCell>
        <mxCell id="azl1znQ4CJjXB9EbV3fs-10" value="cm" style="shape=document;whiteSpace=wrap;html=1;boundedLbl=1;" vertex="1" parent="1">
          <mxGeometry x="340" y="480" width="120" height="80" as="geometry" />
        </mxCell>
        <mxCell id="azl1znQ4CJjXB9EbV3fs-13" value="" style="ellipse;whiteSpace=wrap;html=1;" vertex="1" parent="1">
          <mxGeometry x="340" y="610" width="120" height="80" as="geometry" />
        </mxCell>
      </root>
    </mxGraphModel>
  </diagram>
</mxfile>
